<svg viewBox="0 0 240 240" xmlns:xlink="http://www.w3.org/1999/xlink" xmlns="http://www.w3.org/2000/svg"><defs><style>.b3d79d04-fc49-44d4-b9cf-700a90d85640{fill:url(#b29b2d5b-c880-43d9-be7d-b6ff1b25cc35);}.f8fbf27e-ab3e-40bf-a7af-2a0047e48356{fill:url(#b8deb5a4-329f-426e-9cea-f28c57072b31);}.fd88d90f-9f1f-4b7a-b064-5e3d7a5d9838{fill:url(#b8a67280-c4bc-4ca1-b964-b1e7ec0c36a4);}.a1594814-941d-4981-8596-e3552e559b02{fill:url(#e5a7d546-2754-43b2-b580-5d3f9b7d9a29);}.bc86c9fc-705c-4410-a2a3-e09ad2b01fbd{fill:url(#a6e4603d-dc19-4776-b01c-0940a31dc209);}.a98b306d-84f9-4c27-9fd4-80ecaf8788d0{fill:url(#a32d1960-f374-425a-8109-aca23df61e54);}.aa2ec6ff-abad-41cc-9252-92408a99639c{fill:url(#bdcce997-4cde-4e9a-aebb-6285f3ca827c);}.a526826b-c3f2-4290-9068-f6ea2a351a9a,.b2ef0735-3a95-4562-b0dc-025054d31be9,.b35f9010-330b-4d0c-a32e-be064bb317c6{fill:none;}.a526826b-c3f2-4290-9068-f6ea2a351a9a,.b2ef0735-3a95-4562-b0dc-025054d31be9{stroke:#f2f6fa;}.b2ef0735-3a95-4562-b0dc-025054d31be9,.b35f9010-330b-4d0c-a32e-be064bb317c6,.bb7771cd-8fbf-49b4-85c2-d57809ed74d9{stroke-miterlimit:10;}.a526826b-c3f2-4290-9068-f6ea2a351a9a{stroke-linecap:round;stroke-linejoin:round;stroke-width:2px;}.a67cc677-7c3f-4ecc-bdbb-efdbe55549c7{fill:#f2f2f2;}.f6dc40e9-9248-4eb3-97c6-a8f3fa4dcd25{fill:#dfdfdf;}.b35f9010-330b-4d0c-a32e-be064bb317c6{stroke:#f2f2f2;}.bb7771cd-8fbf-49b4-85c2-d57809ed74d9{fill:#ccc;stroke:#fff;stroke-width:3px;}.b182e85a-cadb-4462-9d44-8aa8fd1a5278{fill:url(#b8e201e0-1c72-46ce-adcb-8f7566d29bee);}.ab484d67-b0a9-44ea-a1a6-dc5f59045039{fill:url(#ba41d000-983e-4aee-a243-d95eb2febf78);}.a6cfc18a-371a-4aa3-86f8-4c81f45cd7da{fill:url(#a0b6322b-8990-468e-abd2-3cba29064193);}.a0eb8fac-f0e0-44e1-b695-ef803449de1e{fill:url(#b7f449e1-3748-4cfc-b088-07d5668726b6);}.b374624a-5ba7-4f72-a5ad-4528d92a5cd4{fill:#fef0e2;}.b374624a-5ba7-4f72-a5ad-4528d92a5cd4,.bb27ea9d-56b0-4b25-b49d-d1340778d0b3,.e4dc4df9-b8ca-44fb-a207-99b3cbfaa633,.ebb8a3bd-84be-4ba4-b9ee-061227b8b3e0,.f82da5a1-7086-42dc-ba34-cfde3e8d637a{fill-rule:evenodd;}.bb27ea9d-56b0-4b25-b49d-d1340778d0b3{fill:url(#ba0f28d9-55f3-409d-a0a8-acc2666ca012);}.ebb8a3bd-84be-4ba4-b9ee-061227b8b3e0{fill:#8faded;}.e4dc4df9-b8ca-44fb-a207-99b3cbfaa633{fill:#fbdbbe;}.f82da5a1-7086-42dc-ba34-cfde3e8d637a{fill:#45487a;}.b180da38-3411-4aa7-864d-be1d99be7d2f{fill:#3b3d6f;}</style><linearGradient gradientUnits="userSpaceOnUse" gradientTransform="translate(-95.22 -166.43) rotate(-42.67)" y2="326.37" x2="-94.51" y1="326.37" x1="-115.45" id="b29b2d5b-c880-43d9-be7d-b6ff1b25cc35"><stop stop-opacity="0" stop-color="#f2f6fa" offset="0"></stop><stop stop-opacity="0.5" stop-color="#e6e6e6" offset="0.7"></stop></linearGradient><linearGradient xlink:href="#b29b2d5b-c880-43d9-be7d-b6ff1b25cc35" gradientTransform="matrix(1, 0, 0, 1, 0, 0)" y2="125.57" x2="215.85" y1="125.57" x1="180.02" id="b8deb5a4-329f-426e-9cea-f28c57072b31"></linearGradient><linearGradient gradientUnits="userSpaceOnUse" y2="60.02" x2="120" y1="295.02" x1="120" id="b8a67280-c4bc-4ca1-b964-b1e7ec0c36a4"><stop stop-opacity="0" stop-color="#f4f4f4" offset="0"></stop><stop stop-opacity="0.7" stop-color="#dfdfdf" offset="0.69"></stop></linearGradient><linearGradient gradientUnits="userSpaceOnUse" gradientTransform="matrix(0, 0.29, -0.21, 0, -142.39, 810.78)" y2="-936.65" x2="-2172.21" y1="-1032.04" x1="-2129.35" id="e5a7d546-2754-43b2-b580-5d3f9b7d9a29"><stop stop-opacity="0.6" stop-color="#ccc" offset="0"></stop><stop stop-opacity="0" stop-color="#dfdfdf" offset="1"></stop></linearGradient><linearGradient gradientUnits="userSpaceOnUse" y2="87.27" x2="106.61" y1="87.27" x1="43.87" id="a6e4603d-dc19-4776-b01c-0940a31dc209"><stop stop-opacity="0.5" stop-color="#e6e6e6" offset="0.14"></stop><stop stop-opacity="0" stop-color="#f2f6fa" offset="1"></stop></linearGradient><linearGradient xlink:href="#b29b2d5b-c880-43d9-be7d-b6ff1b25cc35" gradientTransform="matrix(1, 0, 0, 1, 0, 0)" y2="33.13" x2="173.31" y1="33.13" x1="136.8" id="a32d1960-f374-425a-8109-aca23df61e54"></linearGradient><linearGradient gradientUnits="userSpaceOnUse" y2="142.67" x2="133.38" y1="210.59" x1="145.17" id="bdcce997-4cde-4e9a-aebb-6285f3ca827c"><stop stop-opacity="0" stop-color="#dfdfdf" offset="0.2"></stop><stop stop-color="#ccc" offset="0.83"></stop></linearGradient><linearGradient gradientUnits="userSpaceOnUse" y2="197.22" x2="119.3" y1="78.52" x1="121.08" id="b8e201e0-1c72-46ce-adcb-8f7566d29bee"><stop stop-color="#f4f4f4" offset="0"></stop><stop stop-color="#e7e7e7" offset="0.32"></stop><stop stop-color="#ccc" offset="1"></stop></linearGradient><linearGradient gradientUnits="userSpaceOnUse" y2="64.23" x2="161.12" y1="64.23" x1="149.86" id="ba41d000-983e-4aee-a243-d95eb2febf78"><stop stop-color="#fff" offset="0"></stop><stop stop-color="#94c4ff" offset="1"></stop></linearGradient><linearGradient xlink:href="#ba41d000-983e-4aee-a243-d95eb2febf78" y2="60.29" x2="193.59" y1="60.29" x1="164.31" id="a0b6322b-8990-468e-abd2-3cba29064193"></linearGradient><linearGradient xlink:href="#ba41d000-983e-4aee-a243-d95eb2febf78" y2="72.77" x2="194.9" y1="72.77" x1="170.88" id="b7f449e1-3748-4cfc-b088-07d5668726b6"></linearGradient><linearGradient gradientUnits="userSpaceOnUse" y2="160.97" x2="70.9" y1="160.97" x1="42.77" id="ba0f28d9-55f3-409d-a0a8-acc2666ca012"><stop stop-color="#ff9084" offset="0.21"></stop><stop stop-color="#ffc8ae" offset="0.83"></stop></linearGradient></defs><title>缺省页2号博学堂后台</title><g id="bae97659-7846-4598-ae4c-258aec768ff4"><path d="M47.44,157.48c-4.32-2.87-9.81-8.88-9.94-13.13a2.49,2.49,0,0,1,1.72,1.08s9.67,12.69,5,2.19c-2.2-5-5-9.89-6.49-14.75C35,124,42,123.71,47,134.05c.66,1.36,4.74,12.13,6.94,11.65a.81.81,0,0,0,.52-.6c.66-1.86.13-5,2.26-5.14,1.87-.1,4.44,2.35,6.12,4.62,3.38,4.59,5.42,11.35,1.75,13.4s-11.43,3.28-17.07-.47Z" class="b3d79d04-fc49-44d4-b9cf-700a90d85640"></path><path d="M203.58,118.38s-13.32,15.49-12.88,29.81H195S196.56,130.92,203.58,118.38Zm10.68-20.71c-2.95,3.7-4.84,8.94-3.08,13.63,1.23,3.23,4.91,3.25,4.65,7.74a14.49,14.49,0,0,1-2.25,6.29,48,48,0,0,1-7.61,10,8.78,8.78,0,0,1,3.3,8.12,14.62,14.62,0,0,1-4.17,8.1,5.93,5.93,0,0,1-2.47,1.78,6.53,6.53,0,0,1-2.85,0,49.81,49.81,0,0,1-13.26-4.23c-2.62-1.25-5.3-3-6.19-5.67-1-3.11.61-4.1,2.38-5.08l.45-.25a6.07,6.07,0,0,0,2.36-1.94c1.29-2.12,1.33-5,1.79-7.33.67-3.49-.32-9.85,4.05-11.22,1.7-.53,3.54-.41,5.23-1,3.68-1.17,5.21-4.62,6.68-8.11l.27-.64a21,21,0,0,1,3-5.5C208.43,100.24,213,99.17,214.26,97.67Z" class="f8fbf27e-ab3e-40bf-a7af-2a0047e48356"></path><path d="M237.5,188.49c-16-24-44.43-52-117.5-46-91.26,7.43-111.92,35-116.35,44.36A5.29,5.29,0,0,0,2.5,190c0,12.43,52.61,22.5,117.5,22.5S237.5,202.42,237.5,190a4.66,4.66,0,0,0-.27-1.5Z" class="fd88d90f-9f1f-4b7a-b064-5e3d7a5d9838"></path><ellipse transform="translate(-125.44 231.03) rotate(-86.89)" ry="15.26" rx="3.33" cy="181.74" cx="59.25" class="a1594814-941d-4981-8596-e3552e559b02"></ellipse><path d="M43.91,96.87c1.18-4.36,5.84-17.58,17.29-9.52,0,0,6.41-21.19,25.67-4.53,0,0,9.78-6.14,14.6,6,0,0,6,2.52,5,7.55L44.92,98.1A1,1,0,0,1,43.91,96.87Z" class="bc86c9fc-705c-4410-a2a3-e09ad2b01fbd"></path><path d="M136.8,38.74s3.08-8.64,8.23-5.35c0,0,5.89-11,16.73-2.87,0,0,5.1-1.48,7.81,4.49,0,0,2.68-.45,3.74,1.54Z" class="a98b306d-84f9-4c27-9fd4-80ecaf8788d0"></path><path d="M62.67,177.13s9.32,18.12,85.4,24l70.11-11.82s-23.32-25-39.17-29.85C143.44,148.54,62.67,177.13,62.67,177.13Z" class="aa2ec6ff-abad-41cc-9252-92408a99639c"></path><circle r="5" cy="94.54" cx="185.12" class="b2ef0735-3a95-4562-b0dc-025054d31be9"></circle><line y2="52.27" x2="62.07" y1="59.34" x1="55" class="a526826b-c3f2-4290-9068-f6ea2a351a9a"></line><line y2="52.27" x2="55" y1="59.34" x1="62.07" class="a526826b-c3f2-4290-9068-f6ea2a351a9a"></line><path d="M28.88,161.91s-10.47-10.31-4.58-8.69,8.51,8.15,8.51,8.15-2.62-11.4,3.28-10.86,1.31,10.32,1.31,10.32S34.12,169,28.88,161.91Z" class="a67cc677-7c3f-4ecc-bdbb-efdbe55549c7"></path><path d="M208,157.49s4-14,6-14,5,14,5,14S215,162.49,208,157.49Z" class="f6dc40e9-9248-4eb3-97c6-a8f3fa4dcd25"></path><rect rx="1" height="10" width="2" y="156.49" x="212.5" class="f6dc40e9-9248-4eb3-97c6-a8f3fa4dcd25"></rect><path d="M217.39,171.4s2.26-7.91,3.39-7.91,2.83,7.91,2.83,7.91S221.35,174.23,217.39,171.4Z" class="f6dc40e9-9248-4eb3-97c6-a8f3fa4dcd25"></path><rect rx="0.57" height="5.65" width="1.13" y="170.84" x="219.93" class="f6dc40e9-9248-4eb3-97c6-a8f3fa4dcd25"></rect><path d="M105,53.77C106,62,97,66.5,95.23,61.83s8-4.18,6.1,1.93-9.68,2.68-9.68,2.68" class="b35f9010-330b-4d0c-a32e-be064bb317c6"></path><path d="M84.11,85.83l72.13.42L175.8,129,166,149s-57.42,6.68-58.76,6.68-31.6-8-31.6-8L64.53,128.56Z" class="bb7771cd-8fbf-49b4-85c2-d57809ed74d9"></path><path d="M178.82,125.94l-18-37.09c-2.25-4.64-7.71-7.69-13.78-7.69H93c-6.06,0-11.52,3-13.77,7.69l-18,37.09a5.23,5.23,0,0,0-.54,2.28v44.69c0,3.37,3.33,6.11,7.42,6.11H171.94c4.09,0,7.42-2.74,7.42-6.11v-44.7A5.05,5.05,0,0,0,178.82,125.94Zm-109.17-1L83.33,91.13a7.55,7.55,0,0,1,6.9-3.85H150a7.52,7.52,0,0,1,6.89,3.84l13.47,33.81c.49,1-.41,2.09-1.72,2.09H148.24a3.69,3.69,0,0,0-3.51,2.1l-1.62,4-1.63,4a3.7,3.7,0,0,1-3.52,2.1H102.05a3.71,3.71,0,0,1-3.52-2.1l-1.62-4-1.63-4a3.7,3.7,0,0,0-3.51-2.1H71.38C70.06,127,69.16,125.94,69.65,124.94Z" class="b182e85a-cadb-4462-9d44-8aa8fd1a5278"></path><rect rx="1.59" height="3.18" width="51.24" y="152.55" x="94.38" class="a67cc677-7c3f-4ecc-bdbb-efdbe55549c7"></rect><rect rx="1.26" height="2.52" width="36.76" y="101.64" x="101.62" class="f6dc40e9-9248-4eb3-97c6-a8f3fa4dcd25"></rect><polygon points="161.12 75.77 149.85 54.37 159.43 52.69 161.12 75.77" class="ab484d67-b0a9-44ea-a1a6-dc5f59045039"></polygon><polygon points="164.31 78.59 178.95 41.99 193.59 48.74 164.31 78.59" class="a6cfc18a-371a-4aa3-86f8-4c81f45cd7da"></polygon><polygon points="170.88 77.27 192.65 68.27 194.91 76.15 170.88 77.27" class="a0eb8fac-f0e0-44e1-b695-ef803449de1e"></polygon><path d="M60.5,142.49l-2-6.37L54,135.45c-.82-.37-1.57.23-2.24,1.65-1,2.09-1,7.26-1,7.78s0,.82.75,1.05c.23.07,2-.15,2.47.15.3.22.45.9.38,1.94a5.26,5.26,0,0,0,2.84,1.35,3.6,3.6,0,0,0,2.32-1l-1.05-2.92Z" class="b374624a-5ba7-4f72-a5ad-4528d92a5cd4"></path><path d="M59.45,146.3c.45,1.65-.07,2.47-1.49,2.47s-3.15-.82-5.09-2.47a9.53,9.53,0,0,0-3.82.82,16,16,0,0,0-3.44,3.3l-2.84,3.07a19.23,19.23,0,0,1,2.92,1.12,3.25,3.25,0,0,1,1.12,1.49l18.33,18,2.55,1.5,3.21-2.1c-.15-5.91-.3-10.4-.6-13.39-.37-4.49-.82-6.81-2-9.21s-3.89-3.29-5.23-3.89A30.72,30.72,0,0,0,59.45,146.3Z" class="bb27ea9d-56b0-4b25-b49d-d1340778d0b3"></path><path d="M70.9,173.62c-3.29.89-5.09,1.19-5.31.44a79.6,79.6,0,0,1-.75-9.13,1.83,1.83,0,0,0,0-2.54c-.67-.75-2.32-1.2-4.94-1.42-1.19-1.57-2.24-2.47-3.21-2.62s-2,.3-3.22,1.42c-.9-2.69-2.85-3.89-5.76-3.67-4.27.38-5.62,16.24-5.77,16.92a44.45,44.45,0,0,0-1,8.3c0,1.42,4.71-.3,4.49.75-.3,1.65,1,2.92,3.74,4l4.34-5.32q2.36.57,5.39,1.35a12.71,12.71,0,0,0,7.48,0c2.17-.67,2.62-1.57,3.29-3.59A27.37,27.37,0,0,0,70.9,173.62Z" class="ebb8a3bd-84be-4ba4-b9ee-061227b8b3e0"></path><path d="M61.1,160.82s-2.32,6.21-4.19,7c-2.1.9-3.82-.75-4.79-1a9.92,9.92,0,0,1-2.47-1.42c-1-.82-1.42-2.25-2.09-2.25s.3,1.87,0,1.87-3.82-2.09-3.82-3.29,4-5.16,4-5.46-2-2.92-3.37-2.62-2.85,3-3.44,4c-1.43,2.24-2.47,4.94-1.8,6.13,1.35,2.7,14.59,7.34,16.31,8s2.4,1,4,.3S63,168,64.17,166.58a4.83,4.83,0,0,0,1.2-2.92,2.14,2.14,0,0,0-1.2-2.24A8.49,8.49,0,0,0,61.1,160.82Z" class="e4dc4df9-b8ca-44fb-a207-99b3cbfaa633"></path><path d="M45,181.4a4.43,4.43,0,0,0-3.07-.83,4.11,4.11,0,0,0-1.94,1.2c-1,.9-2,2.4-3,3.29h0a1.92,1.92,0,0,0,1.8,3.3c.08,0,.08,0,.15-.08,1.95-.6,4.42-2.39,7.18-4.86A6.54,6.54,0,0,0,45,181.4Z" class="f82da5a1-7086-42dc-ba34-cfde3e8d637a"></path><path d="M49.2,186a5.34,5.34,0,0,0-2.77-1.72A8.09,8.09,0,0,0,44.19,186c-1,.9-2,2.39-3.07,3.29l-.07.07a1.87,1.87,0,0,0,1.57,3.3c.15-.08.3-.08.45-.15,1.94-.6,4.26-2.1,7-4.57A4.61,4.61,0,0,0,49.2,186Z" class="f82da5a1-7086-42dc-ba34-cfde3e8d637a"></path><path d="M61.55,136.35c-.67-4.12-3.59-4.34-7.86-4s-4.34,2.84-3.51,4.64c.59,1.34,2.84.3,3.74-.23,0,0,2.47-.67,3.81,2.92,0,.08.08.15.08.23v.07h0A2,2,0,0,0,59.08,141a1.5,1.5,0,0,1,.37.22,1,1,0,0,1,.23.9,18.83,18.83,0,0,1-1.72,2.4c1.12.22,2-.45,2.77-1.87A10.82,10.82,0,0,0,61.55,136.35Z" class="b180da38-3411-4aa7-864d-be1d99be7d2f"></path></g></svg>